<svg xmlns="http://www.w3.org/2000/svg" version="1.1" xmlns:xlink="http://www.w3.org/1999/xlink" width="1000" height="1000"><style>
    #light-icon {
      display: inline;
    }
    #dark-icon {
      display: none;
    }

    @media (prefers-color-scheme: dark) {
      #light-icon {
        display: none;
      }
      #dark-icon {
        display: inline;
      }
    }
  </style><g id="light-icon"><svg xmlns="http://www.w3.org/2000/svg" version="1.1" xmlns:xlink="http://www.w3.org/1999/xlink" width="1000" height="1000"><g clip-path="url(#SvgjsClipPath1151)"><rect width="1000" height="1000" fill="#000000"></rect><g transform="matrix(1.1877895236964011,0,0,1.1877895236964011,-5.684341886080802e-14,146.45444827176624)"><svg xmlns="http://www.w3.org/2000/svg" version="1.1" xmlns:xlink="http://www.w3.org/1999/xlink" width="841.9" height="595.3"><svg version="1.1" id="Слой_1" xmlns="http://www.w3.org/2000/svg" xmlns:xlink="http://www.w3.org/1999/xlink" x="0px" y="0px" viewBox="0 0 841.9 595.3" style="enable-background:new 0 0 841.9 595.3;" xml:space="preserve">
<style type="text/css">
	.st0{fill:#FFFFFF;}
</style>
<rect width="841.9" height="595.3"></rect>
<g>
	<path class="st0" d="M367.1,407.4c-2.3,14.1,2.5,25.5,12.1,29.6c19.9,8.4,43.8-10.9,41.3-33.4c-3.6-0.3-3.9,2.9-5.1,5.1
		c-4.8,8.7-11,16.6-21.7,12.1c-10.7-4.6-7.5-15-5.5-23.5c3.4-14.1,7.5-28,11.5-41.9l-19.4,0.2C375.2,372.6,370,389.7,367.1,407.4z"></path>
	<path class="st0" d="M306.6,413.6c-5.8,7-10.4,15.7-0.5,23.2c7,5.2,17.9,1.2,23.1-8.4c3.1-5.8,5.6-12.1,7.5-18.5
		c5.4-18,10.6-36,15.8-54.1l-12.8,0.1C331.7,376.9,321,396.2,306.6,413.6z"></path>
	<path class="st0" d="M189.6,370.2c1.2-4.5,2.4-8.7,3.6-12.7l-22.2,0.2c-5.9,21.1-11.9,42.1-17.8,63.1c-4.3,15.4-4.3,15.1,11,14.6
		c5.8-0.2,8.1-2,9.4-8c2.2-10.4,6.5-20.5,8.4-30.9c1.9-10.2,8.2-16.3,15.1-22.6c5.9-5.3,8.1-4.3,9.9,3.6
		c3.7,16.5,8.3,32.8,12.8,49.2c2.7,9.7,9.1,14.8,18.7,10.9c14.5-6,22.9-18.6,33.7-33.7c-10.8,1.4-12.9,8.2-17,12
		c-9.6,8.8-13.6,8.3-17.3-4c-5.4-18.1-9.8-36.5-14.6-54.8l-18.1,0.2C200.1,361.5,194.9,365.8,189.6,370.2z"></path>
	<path class="st0" d="M383.5,329.2c-8.6-4.3-23.3,0.4-25.4,7.6c-1.9,6.3-3.7,12.7-5.6,19l27.7-0.3c1.3-4.3,2.5-8.5,3.7-12.8
		C385.2,338.5,390.8,332.8,383.5,329.2z"></path>
	<polygon class="st0" points="520,250.3 520,210.1 461.2,209.6 461.2,250.3 	"></polygon>
	<path class="st0" d="M718.4,251.9c-0.1-22.3-17.6-40.4-39.2-40.6l-5.8,0V263h-12.8v-17.9c-5.5,6.8-11.6,12-18.4,15.4
		c-6.8,3.4-14.2,5.2-22.3,5.2c-14.3,0-26.6-5.3-36.7-16c-10.1-10.7-15.2-23.7-15.2-39c0-0.1,0-0.1,0-0.2l-34.9-0.3v40.2h22v29.1
		h-12.3V263h-94.6v-53.5l-285-2.2c-22-0.2-39.9,18.1-39.8,40.7l0,69.1c0,22.6,18,40.9,39.9,40.7l7.7-0.1c8.5-30,16.9-59.9,25.3-89.9
		c6.3-22.4,6.1-22.5-18.8-26.7c17-6.6,31.4-6.9,45.3-9.7c7.4-1.5,4.3,4.3,3.4,7.8c-7.6,27.5-15.2,55-22.8,82.4
		c-3.2,11.4-6.4,22.8-10,36l11.9-0.1c12.4-10.4,23.3-20.4,32.6-32.3c4.7-6,3.2-9.6-4.3-10.7c-2.7-0.4-6.2,1.3-8.4-4.3h59.4
		c0.4,4.1-2.1,4.1-4.1,4.3c-23.3,2.8-38.3,19.9-55.1,33.8c-2.8,2.4-3.1,5.1-2.2,8.4c0.1,0.2,0.1,0.5,0.2,0.7l116.7-1.2
		c2-5.2,3.9-10.6,5.6-16c2.9-9.4,1-11.7-8.1-11c-12.7,0.9-24.5,3.2-32.4,16c2.8-21.8,18-36,37.6-36.3c31.3-0.5,62.6-0.2,93.9,0
		c3.1,0,9.2-2.5,8.2,4.6c-0.8,5.7-0.2,13-7.8,15.2c-1.6,0.5-3.5,0.3-5.2,0.4c-24.8,1.3-24.9,1.3-31.9,25.9c-0.1,0.2-0.1,0.4-0.2,0.6
		l279.8-2.9c21.7-0.2,39.2-18.5,39.1-40.8L718.4,251.9z"></path>
	<path class="st0" d="M581.2,211c0,7.3,1.8,14.3,5.5,21c3.7,6.7,8.6,11.9,14.7,15.6c6.2,3.7,12.8,5.6,19.8,5.6
		c7.1,0,13.9-1.8,20.3-5.5c6.4-3.7,11.3-8.7,14.7-15c3.4-6.3,5.2-13.4,5.2-21.3c0-0.1,0-0.2,0-0.3l-80.2-0.6
		C581.2,210.7,581.2,210.9,581.2,211z"></path>
	<polygon class="st0" points="461.2,158.8 448.1,158.8 448.1,209.5 461.2,209.6 	"></polygon>
	<polygon class="st0" points="533.1,158.8 520,158.8 520,210.1 533.1,210.2 	"></polygon>
	<path class="st0" d="M586.6,190c3.6-6.6,8.5-11.8,14.6-15.4c6.1-3.7,12.8-5.5,20.1-5.5c11.3,0,20.8,4,28.5,12.1
		c7.7,8,11.5,18,11.6,30l12,0.1v-52.4h-12.8V178c-5.1-7.3-11-12.7-17.7-16.4c-6.7-3.6-14.3-5.5-22.6-5.5c-14.4,0-26.7,5.3-36.9,16
		c-10.2,10.6-15.3,23.4-15.3,38.3l13.2,0.1C581.3,203.3,583.1,196.5,586.6,190z"></path>
</g>
</svg></svg></g></g><defs><clipPath id="SvgjsClipPath1151"><rect width="1000" height="1000" x="0" y="0" rx="400" ry="400"></rect></clipPath></defs></svg></g><g id="dark-icon"><svg xmlns="http://www.w3.org/2000/svg" version="1.1" xmlns:xlink="http://www.w3.org/1999/xlink" width="1000" height="1000"><g><g transform="matrix(1.1877895236964011,0,0,1.1877895236964011,-5.684341886080802e-14,146.45444827176624)" style="filter: invert(100%)"><svg xmlns="http://www.w3.org/2000/svg" version="1.1" xmlns:xlink="http://www.w3.org/1999/xlink" width="841.9" height="595.3"><svg version="1.1" id="Слой_1" xmlns="http://www.w3.org/2000/svg" xmlns:xlink="http://www.w3.org/1999/xlink" x="0px" y="0px" viewBox="0 0 841.9 595.3" style="enable-background:new 0 0 841.9 595.3;" xml:space="preserve">
<style type="text/css">
	.st0{fill:#FFFFFF;}
</style>
<g>
	<path class="st0" d="M358.9,424.2c-2.6,16.2,2.8,29.4,13.9,34.1c22.9,9.7,50.5-12.5,47.6-38.5c-4.2-0.4-4.5,3.3-5.9,5.8
		c-5.6,10-12.7,19.2-25,13.9c-12.3-5.2-8.6-17.3-6.3-27.1c3.9-16.3,8.6-32.3,13.2-48.3l-22.3,0.2
		C368.2,384.1,362.2,403.8,358.9,424.2z"></path>
	<path class="st0" d="M289.1,431.4c-6.7,8-12,18.1-0.5,26.7c8,6,20.7,1.4,26.7-9.7c3.6-6.7,6.5-14,8.7-21.3
		c6.2-20.7,12.2-41.6,18.2-62.3l-14.7,0.2C318.1,389,305.7,411.3,289.1,431.4z"></path>
	<path class="st0" d="M154.2,381.3c1.4-5.1,2.8-10,4.1-14.7l-25.6,0.3c-6.8,24.3-13.7,48.5-20.6,72.8c-5,17.7-5,17.4,12.7,16.9
		c6.7-0.2,9.4-2.3,10.9-9.2c2.6-12,7.5-23.6,9.7-35.7c2.2-11.7,9.4-18.8,17.4-26c6.8-6.1,9.3-5,11.4,4.2c4.3,19,9.6,37.9,14.8,56.7
		c3.1,11.2,10.5,17.1,21.6,12.5c16.7-6.9,26.4-21.5,38.8-38.8c-12.4,1.7-14.8,9.4-19.6,13.8c-11,10.1-15.7,9.6-19.9-4.6
		c-6.2-20.9-11.3-42.1-16.9-63.2l-20.9,0.2C166.3,371.3,160.4,376.2,154.2,381.3z"></path>
	<path class="st0" d="M377.8,334c-9.9-4.9-26.8,0.5-29.3,8.8c-2.2,7.3-4.3,14.6-6.4,21.9l31.9-0.3c1.5-4.9,2.9-9.8,4.3-14.7
		C379.8,344.7,386.1,338.2,377.8,334z"></path>
	<polygon class="st0" points="535.2,243.1 535.2,196.7 467.3,196.1 467.3,243.1 	"></polygon>
	<path class="st0" d="M763.9,244.9c-0.1-25.7-20.3-46.6-45.2-46.8L712,198v59.6h-14.8V237c-6.3,7.9-13.4,13.8-21.2,17.8
		c-7.8,4-16.4,6-25.7,6c-16.5,0-30.6-6.2-42.3-18.5c-11.7-12.3-17.5-27.3-17.5-45c0-0.1,0-0.1,0-0.2l-40.2-0.3v46.3h25.3v33.6h-14.2
		v-19H452.3V196l-328.6-2.6c-25.3-0.2-45.9,20.9-45.9,46.9l0,79.7c0,26.1,20.7,47.2,46.1,46.9l8.8-0.1
		c9.7-34.6,19.5-69.1,29.1-103.7c7.2-25.9,7-25.9-21.7-30.8c19.6-7.7,36.2-7.9,52.2-11.2c8.5-1.7,5,5,3.9,9
		c-8.7,31.7-17.5,63.4-26.3,95c-3.7,13.2-7.3,26.3-11.6,41.5l13.7-0.1c14.3-12,26.9-23.5,37.5-37.3c5.4-7,3.7-11.1-4.9-12.4
		c-3.1-0.5-7.2,1.5-9.7-4.9h68.5c0.5,4.7-2.4,4.7-4.7,5c-26.9,3.2-44.1,22.9-63.5,39c-3.3,2.7-3.6,5.9-2.6,9.6
		c0.1,0.3,0.1,0.5,0.2,0.8l134.5-1.4c2.3-6,4.5-12.2,6.5-18.4c3.4-10.8,1.2-13.4-9.4-12.7c-14.7,1-28.3,3.7-37.3,18.5
		c3.2-25.2,20.7-41.5,43.4-41.8c36.1-0.6,72.2-0.3,108.3-0.1c3.6,0,10.6-2.9,9.5,5.3c-0.9,6.6-0.2,14.9-9,17.5c-1.9,0.6-4,0.3-6,0.4
		c-28.6,1.5-28.7,1.5-36.8,29.9c-0.1,0.2-0.1,0.4-0.2,0.7l322.6-3.4c25.1-0.3,45.2-21.3,45.1-47.1L763.9,244.9z"></path>
	<path class="st0" d="M605.7,197.8c0,8.5,2.1,16.5,6.3,24.3c4.2,7.7,9.9,13.7,17,18c7.1,4.3,14.7,6.4,22.9,6.4
		c8.2,0,16-2.1,23.4-6.4c7.4-4.3,13-10,17-17.3c4-7.3,5.9-15.5,5.9-24.6c0-0.1,0-0.2,0-0.3l-92.4-0.7
		C605.7,197.4,605.7,197.6,605.7,197.8z"></path>
	<polygon class="st0" points="467.3,137.6 452.3,137.6 452.3,196 467.3,196.1 	"></polygon>
	<polygon class="st0" points="550.2,137.6 535.2,137.6 535.2,196.7 550.2,196.8 	"></polygon>
	<path class="st0" d="M611.9,173.5c4.2-7.6,9.8-13.6,16.9-17.8c7.1-4.2,14.8-6.3,23.1-6.3c13,0,23.9,4.7,32.8,14
		c8.8,9.3,13.3,20.8,13.3,34.5L712,198v-60.4h-14.8v22.1c-5.9-8.4-12.7-14.7-20.4-18.9c-7.8-4.2-16.4-6.3-26-6.3
		c-16.6,0-30.8,6.1-42.6,18.4c-11.8,12.2-17.6,27-17.7,44.2l15.2,0.1C605.8,188.9,607.9,181,611.9,173.5z"></path>
</g>
</svg></svg></g></g></svg></g></svg>